# xmcd
#
# Track frame offsets:
#	150
#	21125
#	39230
#	62815
#	83890
#	123277
#	143947
#	164622
#	189725
#	207440
#
# Disc length: 2858 seconds
#
# Revision: 1
# Processed by: cddbd v1.5.1PL0 Copyright (c) Steve Scherf et al.
# Submitted via: CDex 1.50Beta5
#
DISCID=8c0b280a
DTITLE=仲井戸麗市 - 「woks」 2
DYEAR=1900
DGENRE=
TTITLE0=Born in 新宿
TTITLE1=ギブソン (CHABO'S BLUES)
TTITLE2=ハイウェイのお月様
TTITLE3=Who'll stop the rain
TTITLE4=スケッチN.Y. '98
TTITLE5=荒野で
TTITLE6=BLUES IS ALRIGHT
TTITLE7=ティーンエイジャー
TTITLE8=夏がいっぱい 〜Instrumental〜
TTITLE9=HORIZON
EXTD=
EXTT0=
EXTT1=
EXTT2=
EXTT3=
EXTT4=
EXTT5=
EXTT6=
EXTT7=
EXTT8=
EXTT9=
PLAYORDER=
